<mxfile host="app.diagrams.net" agent="Mozilla/5.0 (X11; Linux x86_64) AppleWebKit/537.36 (KHTML, like Gecko) Chrome/129.0.0.0 Safari/537.36" version="24.8.0">
  <diagram name="PÃ gina-1" id="ANfU_E7pHBMlSpgSDisd">
    <mxGraphModel dx="1434" dy="754" grid="1" gridSize="10" guides="1" tooltips="1" connect="1" arrows="1" fold="1" page="1" pageScale="1" pageWidth="827" pageHeight="1169" math="0" shadow="0">
      <root>
        <mxCell id="0" />
        <mxCell id="1" parent="0" />
        <mxCell id="q3OaoekdAnvkXVUmLFM6-1" value="" style="shape=flexArrow;endArrow=classic;html=1;rounded=0;fillColor=#d5e8d4;strokeColor=#82b366;" parent="1" edge="1">
          <mxGeometry width="50" height="50" relative="1" as="geometry">
            <mxPoint x="370" y="559.5" as="sourcePoint" />
            <mxPoint x="710" y="560" as="targetPoint" />
          </mxGeometry>
        </mxCell>
        <mxCell id="q3OaoekdAnvkXVUmLFM6-37" value="&lt;font size=&quot;1&quot; color=&quot;#97d077&quot; style=&quot;&quot;&gt;&lt;b style=&quot;font-size: 20px;&quot;&gt;(&lt;/b&gt;&lt;/font&gt;&lt;b style=&quot;color: rgb(151, 208, 119); font-size: 20px;&quot;&gt;main&lt;/b&gt;&lt;font size=&quot;1&quot; color=&quot;#97d077&quot; style=&quot;&quot;&gt;&lt;b style=&quot;font-size: 20px;&quot;&gt;) git merge&amp;nbsp;&lt;/b&gt;&lt;/font&gt;&lt;b style=&quot;color: rgb(151, 208, 119); font-size: 20px;&quot;&gt;hotfix/issue-214&lt;/b&gt;" style="text;html=1;align=center;verticalAlign=middle;whiteSpace=wrap;rounded=0;" parent="1" vertex="1">
          <mxGeometry x="350" y="620" width="370" height="30" as="geometry" />
        </mxCell>
        <mxCell id="nNz4s0xaN7WfVtO6dp6d-16" value="&lt;font color=&quot;#cda2be&quot; size=&quot;1&quot;&gt;&lt;b style=&quot;font-size: 20px;&quot;&gt;hotfix/issue-241&lt;/b&gt;&lt;/font&gt;" style="text;html=1;align=center;verticalAlign=middle;whiteSpace=wrap;rounded=0;opacity=40;" parent="1" vertex="1">
          <mxGeometry x="413.5" y="475" width="170" height="30" as="geometry" />
        </mxCell>
        <mxCell id="q3OaoekdAnvkXVUmLFM6-4" value="" style="edgeStyle=orthogonalEdgeStyle;rounded=0;orthogonalLoop=1;jettySize=auto;html=1;strokeWidth=3;" parent="1" source="q3OaoekdAnvkXVUmLFM6-5" target="q3OaoekdAnvkXVUmLFM6-8" edge="1">
          <mxGeometry relative="1" as="geometry" />
        </mxCell>
        <mxCell id="q3OaoekdAnvkXVUmLFM6-5" value="" style="ellipse;whiteSpace=wrap;html=1;fillColor=#f8cecc;strokeColor=#b85450;strokeWidth=4;" parent="1" vertex="1">
          <mxGeometry x="280" y="390" width="40" height="40" as="geometry" />
        </mxCell>
        <mxCell id="q3OaoekdAnvkXVUmLFM6-6" value="&lt;b style=&quot;forced-color-adjust: none; color: rgb(126, 166, 224); font-family: Helvetica; font-style: normal; font-variant-ligatures: normal; font-variant-caps: normal; letter-spacing: normal; orphans: 2; text-align: center; text-indent: 0px; text-transform: none; widows: 2; word-spacing: 0px; -webkit-text-stroke-width: 0px; white-space: normal; background-color: rgb(251, 251, 251); text-decoration-thickness: initial; text-decoration-style: initial; text-decoration-color: initial; font-size: 20px;&quot;&gt;develop&lt;/b&gt;" style="text;html=1;align=center;verticalAlign=middle;whiteSpace=wrap;rounded=0;" parent="1" vertex="1">
          <mxGeometry x="200" y="635" width="60" height="30" as="geometry" />
        </mxCell>
        <mxCell id="q3OaoekdAnvkXVUmLFM6-8" value="" style="ellipse;whiteSpace=wrap;html=1;fillColor=#dae8fc;strokeColor=#6c8ebf;strokeWidth=4;" parent="1" vertex="1">
          <mxGeometry x="280" y="470" width="40" height="40" as="geometry" />
        </mxCell>
        <mxCell id="q3OaoekdAnvkXVUmLFM6-10" value="" style="ellipse;whiteSpace=wrap;html=1;fillColor=#dae8fc;strokeColor=#6c8ebf;strokeWidth=4;" parent="1" vertex="1">
          <mxGeometry x="280" y="550" width="40" height="40" as="geometry" />
        </mxCell>
        <mxCell id="q3OaoekdAnvkXVUmLFM6-13" style="rounded=0;orthogonalLoop=1;jettySize=auto;html=1;strokeWidth=3;" parent="1" source="q3OaoekdAnvkXVUmLFM6-8" target="q3OaoekdAnvkXVUmLFM6-10" edge="1">
          <mxGeometry relative="1" as="geometry">
            <mxPoint x="390" y="600" as="sourcePoint" />
            <mxPoint x="390" y="640" as="targetPoint" />
          </mxGeometry>
        </mxCell>
        <mxCell id="q3OaoekdAnvkXVUmLFM6-14" value="" style="ellipse;whiteSpace=wrap;html=1;fillColor=#dae8fc;strokeColor=#6c8ebf;strokeWidth=4;" parent="1" vertex="1">
          <mxGeometry x="280" y="630" width="40" height="40" as="geometry" />
        </mxCell>
        <mxCell id="q3OaoekdAnvkXVUmLFM6-16" style="rounded=0;orthogonalLoop=1;jettySize=auto;html=1;strokeWidth=3;" parent="1" source="q3OaoekdAnvkXVUmLFM6-10" target="q3OaoekdAnvkXVUmLFM6-14" edge="1">
          <mxGeometry relative="1" as="geometry">
            <mxPoint x="310" y="520" as="sourcePoint" />
            <mxPoint x="310" y="640" as="targetPoint" />
          </mxGeometry>
        </mxCell>
        <mxCell id="0ba_NQS49spawvmG6TYM-1" value="&lt;b style=&quot;forced-color-adjust: none; font-family: Helvetica; font-style: normal; font-variant-ligatures: normal; font-variant-caps: normal; letter-spacing: normal; orphans: 2; text-align: center; text-indent: 0px; text-transform: none; widows: 2; word-spacing: 0px; -webkit-text-stroke-width: 0px; white-space: normal; background-color: rgb(251, 251, 251); text-decoration-thickness: initial; text-decoration-style: initial; text-decoration-color: initial; font-size: 20px;&quot;&gt;&lt;font color=&quot;#ea6b66&quot;&gt;main&lt;/font&gt;&lt;/b&gt;" style="text;html=1;align=center;verticalAlign=middle;whiteSpace=wrap;rounded=0;" parent="1" vertex="1">
          <mxGeometry x="210" y="395" width="60" height="30" as="geometry" />
        </mxCell>
        <mxCell id="0ba_NQS49spawvmG6TYM-3" value="" style="ellipse;whiteSpace=wrap;html=1;fillColor=#e1d5e7;strokeColor=#9673a6;strokeWidth=4;" parent="1" vertex="1">
          <mxGeometry x="360" y="470" width="40" height="40" as="geometry" />
        </mxCell>
        <mxCell id="0ba_NQS49spawvmG6TYM-4" style="rounded=0;orthogonalLoop=1;jettySize=auto;html=1;strokeWidth=3;" parent="1" source="q3OaoekdAnvkXVUmLFM6-5" target="0ba_NQS49spawvmG6TYM-3" edge="1">
          <mxGeometry relative="1" as="geometry">
            <mxPoint x="310" y="600" as="sourcePoint" />
            <mxPoint x="310" y="640" as="targetPoint" />
          </mxGeometry>
        </mxCell>
        <mxCell id="0ba_NQS49spawvmG6TYM-5" value="&lt;font style=&quot;font-size: 16px;&quot;&gt;&lt;b&gt;v1.2.0&lt;/b&gt;&lt;/font&gt;" style="shape=display;whiteSpace=wrap;html=1;fillColor=#f5f5f5;fontColor=#333333;strokeColor=#666666;" parent="1" vertex="1">
          <mxGeometry x="340" y="395" width="80" height="30" as="geometry" />
        </mxCell>
        <mxCell id="0ba_NQS49spawvmG6TYM-20" value="&lt;font size=&quot;1&quot; color=&quot;#97d077&quot; style=&quot;&quot;&gt;&lt;b style=&quot;font-size: 20px;&quot;&gt;(&lt;/b&gt;&lt;/font&gt;&lt;b style=&quot;color: rgb(151, 208, 119); font-size: 20px;&quot;&gt;develop&lt;/b&gt;&lt;font size=&quot;1&quot; color=&quot;#97d077&quot; style=&quot;&quot;&gt;&lt;b style=&quot;font-size: 20px;&quot;&gt;) git merge hotfix/issue-214&lt;/b&gt;&lt;/font&gt;" style="text;html=1;align=center;verticalAlign=middle;whiteSpace=wrap;rounded=0;" parent="1" vertex="1">
          <mxGeometry x="350" y="585" width="370" height="30" as="geometry" />
        </mxCell>
        <mxCell id="PTpYBDrivjhUZHeMxTHD-2" value="" style="edgeStyle=orthogonalEdgeStyle;rounded=0;orthogonalLoop=1;jettySize=auto;html=1;strokeWidth=3;" edge="1" parent="1" source="PTpYBDrivjhUZHeMxTHD-3" target="PTpYBDrivjhUZHeMxTHD-5">
          <mxGeometry relative="1" as="geometry" />
        </mxCell>
        <mxCell id="PTpYBDrivjhUZHeMxTHD-3" value="" style="ellipse;whiteSpace=wrap;html=1;fillColor=#f8cecc;strokeColor=#b85450;strokeWidth=4;" vertex="1" parent="1">
          <mxGeometry x="750" y="330" width="40" height="40" as="geometry" />
        </mxCell>
        <mxCell id="PTpYBDrivjhUZHeMxTHD-4" value="&lt;b style=&quot;forced-color-adjust: none; color: rgb(126, 166, 224); font-family: Helvetica; font-style: normal; font-variant-ligatures: normal; font-variant-caps: normal; letter-spacing: normal; orphans: 2; text-align: center; text-indent: 0px; text-transform: none; widows: 2; word-spacing: 0px; -webkit-text-stroke-width: 0px; white-space: normal; background-color: rgb(251, 251, 251); text-decoration-thickness: initial; text-decoration-style: initial; text-decoration-color: initial; font-size: 20px;&quot;&gt;develop&lt;/b&gt;" style="text;html=1;align=center;verticalAlign=middle;whiteSpace=wrap;rounded=0;" vertex="1" parent="1">
          <mxGeometry x="820" y="655" width="60" height="30" as="geometry" />
        </mxCell>
        <mxCell id="PTpYBDrivjhUZHeMxTHD-5" value="" style="ellipse;whiteSpace=wrap;html=1;fillColor=#dae8fc;strokeColor=#6c8ebf;strokeWidth=4;" vertex="1" parent="1">
          <mxGeometry x="750" y="410" width="40" height="40" as="geometry" />
        </mxCell>
        <mxCell id="PTpYBDrivjhUZHeMxTHD-6" value="" style="ellipse;whiteSpace=wrap;html=1;fillColor=#dae8fc;strokeColor=#6c8ebf;strokeWidth=4;" vertex="1" parent="1">
          <mxGeometry x="750" y="490" width="40" height="40" as="geometry" />
        </mxCell>
        <mxCell id="PTpYBDrivjhUZHeMxTHD-7" style="rounded=0;orthogonalLoop=1;jettySize=auto;html=1;strokeWidth=3;" edge="1" parent="1" source="PTpYBDrivjhUZHeMxTHD-5" target="PTpYBDrivjhUZHeMxTHD-6">
          <mxGeometry relative="1" as="geometry">
            <mxPoint x="860" y="540" as="sourcePoint" />
            <mxPoint x="860" y="580" as="targetPoint" />
          </mxGeometry>
        </mxCell>
        <mxCell id="PTpYBDrivjhUZHeMxTHD-8" value="" style="ellipse;whiteSpace=wrap;html=1;fillColor=#dae8fc;strokeColor=#6c8ebf;strokeWidth=4;" vertex="1" parent="1">
          <mxGeometry x="750" y="570" width="40" height="40" as="geometry" />
        </mxCell>
        <mxCell id="PTpYBDrivjhUZHeMxTHD-9" style="rounded=0;orthogonalLoop=1;jettySize=auto;html=1;strokeWidth=3;" edge="1" parent="1" source="PTpYBDrivjhUZHeMxTHD-6" target="PTpYBDrivjhUZHeMxTHD-8">
          <mxGeometry relative="1" as="geometry">
            <mxPoint x="780" y="460" as="sourcePoint" />
            <mxPoint x="780" y="580" as="targetPoint" />
          </mxGeometry>
        </mxCell>
        <mxCell id="PTpYBDrivjhUZHeMxTHD-10" value="&lt;b style=&quot;forced-color-adjust: none; font-family: Helvetica; font-style: normal; font-variant-ligatures: normal; font-variant-caps: normal; letter-spacing: normal; orphans: 2; text-align: center; text-indent: 0px; text-transform: none; widows: 2; word-spacing: 0px; -webkit-text-stroke-width: 0px; white-space: normal; background-color: rgb(251, 251, 251); text-decoration-thickness: initial; text-decoration-style: initial; text-decoration-color: initial; font-size: 20px;&quot;&gt;&lt;font color=&quot;#ea6b66&quot;&gt;main&lt;/font&gt;&lt;/b&gt;" style="text;html=1;align=center;verticalAlign=middle;whiteSpace=wrap;rounded=0;" vertex="1" parent="1">
          <mxGeometry x="890" y="450" width="60" height="30" as="geometry" />
        </mxCell>
        <mxCell id="PTpYBDrivjhUZHeMxTHD-11" value="" style="ellipse;whiteSpace=wrap;html=1;fillColor=#f8cecc;strokeColor=#b85450;strokeWidth=4;" vertex="1" parent="1">
          <mxGeometry x="830" y="410" width="40" height="40" as="geometry" />
        </mxCell>
        <mxCell id="PTpYBDrivjhUZHeMxTHD-12" style="rounded=0;orthogonalLoop=1;jettySize=auto;html=1;strokeWidth=3;" edge="1" parent="1" source="PTpYBDrivjhUZHeMxTHD-3" target="PTpYBDrivjhUZHeMxTHD-11">
          <mxGeometry relative="1" as="geometry">
            <mxPoint x="780" y="540" as="sourcePoint" />
            <mxPoint x="780" y="580" as="targetPoint" />
          </mxGeometry>
        </mxCell>
        <mxCell id="PTpYBDrivjhUZHeMxTHD-13" value="&lt;font style=&quot;font-size: 16px;&quot;&gt;&lt;b&gt;v1.2.0&lt;/b&gt;&lt;/font&gt;" style="shape=display;whiteSpace=wrap;html=1;fillColor=#f5f5f5;fontColor=#333333;strokeColor=#666666;" vertex="1" parent="1">
          <mxGeometry x="810" y="335" width="80" height="30" as="geometry" />
        </mxCell>
        <mxCell id="PTpYBDrivjhUZHeMxTHD-14" value="&lt;font style=&quot;font-size: 16px;&quot;&gt;&lt;b&gt;v1.2.1&lt;/b&gt;&lt;/font&gt;" style="shape=display;whiteSpace=wrap;html=1;fillColor=#f5f5f5;fontColor=#333333;strokeColor=#666666;" vertex="1" parent="1">
          <mxGeometry x="880" y="415" width="80" height="30" as="geometry" />
        </mxCell>
        <mxCell id="PTpYBDrivjhUZHeMxTHD-15" value="" style="ellipse;whiteSpace=wrap;html=1;fillColor=#e1d5e7;strokeColor=#9673a6;strokeWidth=4;" vertex="1" parent="1">
          <mxGeometry x="750" y="650" width="40" height="40" as="geometry" />
        </mxCell>
        <mxCell id="PTpYBDrivjhUZHeMxTHD-16" style="rounded=0;orthogonalLoop=1;jettySize=auto;html=1;strokeWidth=3;" edge="1" parent="1" source="PTpYBDrivjhUZHeMxTHD-8" target="PTpYBDrivjhUZHeMxTHD-15">
          <mxGeometry relative="1" as="geometry">
            <mxPoint x="830" y="660" as="sourcePoint" />
            <mxPoint x="830" y="700" as="targetPoint" />
          </mxGeometry>
        </mxCell>
        <mxCell id="PTpYBDrivjhUZHeMxTHD-17" style="rounded=0;orthogonalLoop=1;jettySize=auto;html=1;strokeWidth=3;" edge="1" parent="1" source="PTpYBDrivjhUZHeMxTHD-11" target="PTpYBDrivjhUZHeMxTHD-15">
          <mxGeometry relative="1" as="geometry">
            <mxPoint x="794" y="374" as="sourcePoint" />
            <mxPoint x="846" y="426" as="targetPoint" />
            <Array as="points">
              <mxPoint x="850" y="610" />
            </Array>
          </mxGeometry>
        </mxCell>
      </root>
    </mxGraphModel>
  </diagram>
</mxfile>
